<?xml version="1.0" encoding="utf-8"?>
<!-- Generator: Adobe Illustrator 28.0.0, SVG Export Plug-In . SVG Version: 6.00 Build 0)  -->
<svg version="1.1" id="Calque_1" xmlns="http://www.w3.org/2000/svg" xmlns:xlink="http://www.w3.org/1999/xlink" x="0px"
     y="0px"
     viewBox="0 0 70.9 70.9" style="enable-background:new 0 0 70.9 70.9;" xml:space="preserve">
    <style type="text/css">
        .st0 {
            fill: none;
            stroke: #000000;
            stroke-width: 0.6;
            stroke-linecap: round;
            stroke-miterlimit: 10;
        }
    </style>
    <path class="st0" d="M36.3,5.8c-5.7-1-18.6,11.2-20.8,30.7s9.1,28.4,18.1,28.4c10.5,0,22.9-9.9,22-26.7c-0.9-16.9-11.2-28.8-20.2-28
	c-19.5,1.7-20.2,33.6-4.1,36.3c16.1,2.7,15.4-28.5,4.1-27.8c-17.7,1.1-17.2,39.5,1.7,40.5c18.2,1,11.3-24.9,2.4-25.5
	c-8.4-0.6-11.3,16.9,0.7,16.7c3.6,0,4-3.5,2.4-5.1c-1.9-1.9-5.5-1.8-4.2,0.5" />
</svg>