<?xml version="1.0" encoding="utf-8"?>
<!-- Generator: Adobe Illustrator 28.0.0, SVG Export Plug-In . SVG Version: 6.00 Build 0)  -->
<svg version="1.1" id="Calque_1" xmlns="http://www.w3.org/2000/svg" xmlns:xlink="http://www.w3.org/1999/xlink" x="0px"
     y="0px"
     viewBox="0 0 70.9 70.9" style="enable-background:new 0 0 70.9 70.9;" xml:space="preserve">
    <style type="text/css">
        .st0 {
            fill: none;
            stroke: #000000;
            stroke-width: 0.6;
            stroke-linecap: round;
            stroke-miterlimit: 10;
        }
    </style>
    <path class="st0" d="M24,20.8c0.1,0-8.3,0.1-9.4,1.4s-2,8.4-2,15.7c0,7.3-1.5,14.1,4.9,15.6s36.9,3.1,39.4-0.8s4.7-27.3,3.1-31.3
	s-31.9-0.9-34.8,0.5s-2,27.3-1.4,29.3c0.4,1.2,20.6,3.1,22-0.6s3.2-30.8,2.8-32.6c-0.5-1.8-2.4-3-8.5-2.2c-6.2,0.8-9.9,0.9-10.2,5.8
	s-0.4,34.8,0.9,35.6c1,0.6,10,2.3,10.1-1.2c0.2-3.5,0.7-42.1,0.7-42.1" />
</svg>