<?xml version="1.0" encoding="utf-8"?>
<!-- Generator: Adobe Illustrator 28.0.0, SVG Export Plug-In . SVG Version: 6.00 Build 0)  -->
<svg version="1.1" id="Calque_1" xmlns="http://www.w3.org/2000/svg" xmlns:xlink="http://www.w3.org/1999/xlink" x="0px"
     y="0px"
     viewBox="0 0 70.9 70.9" style="enable-background:new 0 0 70.9 70.9;" xml:space="preserve">
    <style type="text/css">
        .st0 {
            fill: none;
            stroke: #000000;
            stroke-width: 0.6;
            stroke-linecap: round;
            stroke-miterlimit: 10;
        }
    </style>
    <path class="st0" d="M12.4,31.1c0,0.6-0.5-6.8,0.6-9.9c1.1-3.1,3.2-4.9,7.1-5.2c3.9-0.3,34.1,0.1,36.5,0.5c2.4,0.4,3.1,5.3,2.9,8.6
	c-0.2,3.2-0.2,9-2.4,7c-2.3-2-9.6-15-21.5-14.7C23.8,17.8,8.1,32.2,11.9,32c3.5-0.2,8.5-3.6,11.1-7.8c2.6-4.2,7.2-9.6,9.8-9.2
	c2.6,0.3,6,2.6,5.9,8.8c-0.1,6.2-2.8,33.7-1.1,35.6c1.8,1.9,6.2,0.7,5.1-0.7c-1.1-1.5-16.8-0.3-20.1-0.3c-3.3,0-1.9-1.8,0.8-2.8
	c2.6-1,5.3-3.6,6-10.4c0.7-6.8,3.9-33,3.9-33" />
</svg>